# xmcd
#
# Track frame offsets: 
#        150
#        11147
#        22972
#        37217
#        47647
#        61807
#        76237
#        86600
#        100867
#        112467
#        126547
#        139905
#        153587
#
# Disc length: 2168 seconds
#
# Revision: 3
# Processed by: cddbd v1.5.2PL0 Copyright (c) Steve Scherf et al.
# Submitted via: ExactAudioCopy v1.0b1
#
DISCID=b408760d
DTITLE=J. B. Lenoir - The Parrot Sessions:  1954 - 55
DYEAR=1988
DGENRE=Blues
TTITLE0=Mama, Talk To Your Daughter (mono)
TTITLE1=Eisenhower Blues (alt - take 1) (mono)
TTITLE2=I Lost My Baby (mono)
TTITLE3=Give Me One More Shot (mono)
TTITLE4=Man, Watch Your Women (mono)
TTITLE5=I'm In Korea (mono)
TTITLE6=I'm Gonna Die Someday (mono)
TTITLE7=What Have I Done (mono)
TTITLE8=Fine Girls (mono)
TTITLE9=We've Both Got To Realize (mono)
TTITLE10=Eisenhower Blues (master - take 5) (mono)
TTITLE11=Sittin' Down Thinkin' (mono)
TTITLE12=Mama, Your Daughter's Going To Miss Me (mono)
EXTD=
EXTT0=Lenoir, J. B.
EXTT1=Lenoir, J. B.
EXTT2=Lenoir, J. B.
EXTT3=Lenoir, J. B.
EXTT4=Lenoir, J. B.
EXTT5=Lenoir, J. B.
EXTT6=Lenoir, J. B.
EXTT7=Lenoir, J. B.
EXTT8=Lenoir, J. B.
EXTT9=Lenoir, J. B.
EXTT10=Lenoir, J. B.
EXTT11=Lenoir, J. B.
EXTT12=Lenoir, J. B.
PLAYORDER=
